<svg id="Ebene_1" data-name="Ebene 1" xmlns="http://www.w3.org/2000/svg" viewBox="0 0 224.24 186.92"><defs><style>.cls-1,.cls-2{stroke:#fff;stroke-miterlimit:10;}.cls-2{fill:#1d1d1b;}</style></defs><g id="Ebene_2" data-name="Ebene 2"><g id="Ebene_1-2" data-name="Ebene 1-2"><path class="cls-1" d="M139,60.86,115,74.22,91,60.86V36.17H82.5V63.4a4.27,4.27,0,0,0,2.19,3.73l28,15.57a4.28,4.28,0,0,0,2.07.53h.52a4.32,4.32,0,0,0,2.08-.53l28-15.57a4.27,4.27,0,0,0,2.19-3.73V36.17H139Z" transform="translate(-2.65 -2.12)"/><path class="cls-1" d="M145.39,18.75l-28-15.56a4.33,4.33,0,0,0-2.08-.57h-.52a4.28,4.28,0,0,0-2.07.53l-28,15.56a4.27,4.27,0,0,0-2.19,3.73v2.91h7.78L115,11.62l24.73,13.77,7.78-.08V22.48A4.25,4.25,0,0,0,145.39,18.75Z" transform="translate(-2.65 -2.12)"/><path class="cls-2" d="M29.07,151V118.11H36.6V150.9c0,5.57-3.56,8.48-8.76,8.48H11.9c-4.86,0-8.75-2.92-8.75-8.48V118.11h7.59V151c0,1.07.42,1.72,1.31,1.72H27.7C28.65,152.68,29.07,152,29.07,151Z" transform="translate(-2.65 -2.12)"/><path class="cls-2" d="M49.46,118.11h7.11l19.16,29.11V118.11h7.11v41.27H75.73L56.57,130.2v29.18H49.46Z" transform="translate(-2.65 -2.12)"/><path class="cls-2" d="M97.78,118.11h7.12v41.27H97.78Z" transform="translate(-2.65 -2.12)"/><path class="cls-2" d="M127.55,124.81H116.22v-6.7h29.83v6.7H134.67v34.57h-7.12Z" transform="translate(-2.65 -2.12)"/><path class="cls-2" d="M156,118.11h27.64v6.7H163.07v9.78h16.11v6.7H163.07v11.39h21v6.7H156Z" transform="translate(-2.65 -2.12)"/><path class="cls-2" d="M226.39,126.59V150.9c0,5.57-3.62,8.48-8.75,8.48H195V118.11h22.6C222.77,118.11,226.39,121,226.39,126.59Zm-8.89,26.09c.88,0,1.3-.65,1.3-1.72v-24.5c0-1-.42-1.65-1.3-1.65H202.14v27.87Z" transform="translate(-2.65 -2.12)"/><path class="cls-2" d="M5,177.5v10.22H3.32V174H5.1l5.24,10.48L15.56,174h1.78v13.72H15.6V177.5l-5.32,10.43Z" transform="translate(-2.65 -2.12)"/><path class="cls-2" d="M26.05,174l6.22,13.72H30.38l-1.07-2.27H22.6l-.88,2.29H20L25.25,174Zm-.4,3.34-2.44,6.45h5.35Z" transform="translate(-2.65 -2.12)"/><path class="cls-2" d="M34.9,174h1.77l7.16,10.78V174H45.6v13.72H43.83l-7.16-10.81v10.81H34.9Z" transform="translate(-2.65 -2.12)"/><path class="cls-2" d="M58.8,185.61V174h1.82v11.32a2.31,2.31,0,0,1-2.18,2.41H52.37a2.3,2.3,0,0,1-2.48-2.09c0-.1,0-.21,0-.31V174H51.7v11.61c0,.29.12.48.42.48h6.26C58.68,186.09,58.8,185.9,58.8,185.61Z" transform="translate(-2.65 -2.12)"/><path class="cls-2" d="M64.9,174h8.61v1.63h-6.8v4.26h5.9v1.67H66.67v6.2H64.9Z" transform="translate(-2.65 -2.12)"/><path class="cls-2" d="M80.59,174l6.2,13.72h-2l-1-2.27H77.12l-.88,2.29H74.5L79.79,174Zm-.4,3.34-2.43,6.45H83.1Z" transform="translate(-2.65 -2.12)"/><path class="cls-2" d="M89.08,185.32V176.4A2.29,2.29,0,0,1,91.25,174H96.9a2.21,2.21,0,0,1,2.42,2,2.94,2.94,0,0,1,0,.42v1.44H97.54V176.1c0-.29-.12-.47-.41-.47H90.89v10.46h6.24c.29,0,.41-.19.41-.48v-1.72h1.78v1.43a2.21,2.21,0,0,1-2,2.4H91.57a2.3,2.3,0,0,1-2.49-2.09A1.61,1.61,0,0,1,89.08,185.32Z" transform="translate(-2.65 -2.12)"/><path class="cls-2" d="M105.86,175.63h-4V174h9.73v1.63h-4v12.09h-1.78Z" transform="translate(-2.65 -2.12)"/><path class="cls-2" d="M123.4,185.61V174h1.82v11.32a2.31,2.31,0,0,1-2.18,2.41h-6.1a2.3,2.3,0,0,1-2.49-2.09c0-.1,0-.21,0-.31V174h1.82v11.61c0,.29.11.48.42.48H123C123.28,186.09,123.4,185.9,123.4,185.61Z" transform="translate(-2.65 -2.12)"/><path class="cls-2" d="M139.89,187.72h-2.13l-4.54-5.54h-1.95v5.54H129.5V174h7.06a2.28,2.28,0,0,1,2.48,2.1,1.5,1.5,0,0,1,0,.3v3.37a2.29,2.29,0,0,1-2.17,2.41h-1.51Zm-8.63-7.13h6v-5h-6Z" transform="translate(-2.65 -2.12)"/><path class="cls-2" d="M143,174h1.78v13.72H143Z" transform="translate(-2.65 -2.12)"/><path class="cls-2" d="M149.49,174h1.78l7.16,10.78V174h1.78v13.72h-1.78l-7.16-10.81v10.81h-1.78Z" transform="translate(-2.65 -2.12)"/><path class="cls-2" d="M172.37,187.72H167a2.3,2.3,0,0,1-2.48-2.1,1.5,1.5,0,0,1,0-.3V176.4A2.29,2.29,0,0,1,166.7,174h5.65a2.21,2.21,0,0,1,2.41,2,2.81,2.81,0,0,1,0,.41v1.34H173V176.1c0-.29-.12-.47-.42-.47h-6.24v10.46h6.22c.3,0,.42-.19.42-.48v-3.22h-2.92v-1.63h4.69v4.56a2.22,2.22,0,0,1-2,2.4Z" transform="translate(-2.65 -2.12)"/><path class="cls-2" d="M185.53,174h1.77v6.18h6.58V174h1.77v13.72h-1.77v-5.84H187.3v5.84h-1.77Z" transform="translate(-2.65 -2.12)"/><path class="cls-2" d="M208.84,185.61V174h1.81v11.32a2.28,2.28,0,0,1-2.17,2.4h-6.06a2.3,2.3,0,0,1-2.49-2.09,1.61,1.61,0,0,1,0-.31V174h1.81v11.61c0,.29.12.48.41.48h6.28C208.73,186.09,208.84,185.9,208.84,185.61Z" transform="translate(-2.65 -2.12)"/><path class="cls-2" d="M224.7,178c0,1.51-.18,2.24-1.14,2.82,1,.59,1.18,1.85,1.18,3.23,0,2.64-1,3.71-3.08,3.71h-6.72V174h6.53C223.75,174,224.7,174.92,224.7,178Zm-1.85,1.94v-3.79c0-.29-.14-.47-.44-.47h-5.7v4.24Zm-.44,6.2c.3,0,.44-.19.44-.48v-4.15h-6.14v4.62Z" transform="translate(-2.65 -2.12)"/></g></g></svg>