<svg xmlns="http://www.w3.org/2000/svg" viewBox="0 0 230.13 361.22"><defs><style>.cls-1{fill:#fff;}.cls-2{fill:#aec9cc;}.cls-3{fill:#2d393d;}.cls-4{fill:#ffd7a6;}.cls-5{fill:#b81f40;}.cls-6{fill:#3f8b9e;}.cls-7{fill:#16697a;}.cls-8{fill:#ffa62b;}.cls-9{fill:#bacacc;}.cls-10{fill:#489fb5;}</style></defs><title>Element 3</title><g id="Ebene_2" data-name="Ebene 2"><g id="Original"><g id="Schattierung"><g id="Weiß"><path class="cls-1" d="M77.35,279.78C79,288.6,82,301.4,87.27,311.65c3.5,6.79,8,12.41,13.54,14.78,6,2.52,10.39-3.07,13.64-11.37,3.71-9.46,5.83-22.26,7-32,1.57,2.4,2.23,5.92,2.3,9.85a120.35,120.35,0,0,0,27.31-4.48A68.34,68.34,0,0,0,172.78,278c-1.86,7.75-9.17,11.72-15.91,14.14a74,74,0,0,0,4.45,11,49.48,49.48,0,0,0,8.07,11.62,19.67,19.67,0,0,0,6.59,4.92,8.14,8.14,0,0,0,4.61.58,8.48,8.48,0,0,0,4.18-2.29,22.14,22.14,0,0,0,4.92-7.78c5.78-14.12,8-37.63,9-48.82.19-2,.34-3.64.43-4.45a2.63,2.63,0,0,1,2.9-2.32,2.44,2.44,0,0,1,.47.09,5,5,0,0,0,3.37.11,3.91,3.91,0,0,0,1.93-2.83,19,19,0,0,0,.07-7.24c-1.23-8.29-6.06-19.1-13.69-27.41a2.63,2.63,0,0,1,.16-3.71,2.68,2.68,0,0,1,1-.59,4.9,4.9,0,0,0,3.1-1.94,2.6,2.6,0,0,0,.06-2.1,9.46,9.46,0,0,0-2.6-3.65c-4.24-4-12.63-7.83-25.09-9.14-3.51-.37-7-.58-10.51-.79-16.45-1-31.32-1.88-41-18.63-10.12-17.53-8.75-39.45-7.33-62.31.5-8,1-16.19,1-24.38a2.64,2.64,0,0,1,2.53-2.63,2.87,2.87,0,0,0,1-.3,4.14,4.14,0,0,0,1.83-2.31,13.36,13.36,0,0,0,.6-5.73c-.32-4.16-1.89-9.52-5.21-16a2.62,2.62,0,0,1,0-2.33h0a16.87,16.87,0,0,0,2-8.86c-.3-2.77-1.72-5.55-4.83-8.3a2.61,2.61,0,0,1-.64-3.06,14.67,14.67,0,0,0,.39-11.31c-1.22-3.11-3.77-6-8.16-8.12a2.63,2.63,0,0,1-1.25-3.5v0c.6-1.54,0-3.51-1.34-5.21a10.16,10.16,0,0,0-2.89-2.51,8.1,8.1,0,0,0-3.53-1.1c-2.29-.12-4.8,1-7,4a2.62,2.62,0,0,1-4.7-1,8.32,8.32,0,0,0-3-4.7,9.55,9.55,0,0,0-11.51,0,8.37,8.37,0,0,0-3,4.76,2.62,2.62,0,0,1-4.69.9c-2.18-3.06-4.68-4.14-7-4a8.06,8.06,0,0,0-3.53,1.1,10,10,0,0,0-2.89,2.51c-1.34,1.74-2,3.77-1.3,5.33a2.61,2.61,0,0,1-1.29,3.4h0c-4.4,2.08-6.94,5-8.16,8.12a14.67,14.67,0,0,0,.39,11.31,2.61,2.61,0,0,1-.76,3.16c-3,2.72-4.42,5.46-4.71,8.2a16.68,16.68,0,0,0,2,8.86,2.65,2.65,0,0,1-.12,2.48C29,69.65,27.41,75,27.1,79.09a13.38,13.38,0,0,0,.59,5.73,4.15,4.15,0,0,0,1.84,2.31,2.74,2.74,0,0,0,1.12.31,2.63,2.63,0,0,1,2.43,2.62V99c0,38.67.05,59.45-7.43,87.36L25,188.74c-1.44,5.3-2.56,9.42-2.06,10.74,1.26,3.34,4.27,1.5,4.28,1.5a2.61,2.61,0,0,1,3.57,1,2.55,2.55,0,0,1,.25,2h0c0,.07-7.12,25.25-4.76,35.78,1.1,4.9,4.63-.8,4.64-.82a2.63,2.63,0,0,1,4.85,1.57,37.16,37.16,0,0,0,4.12,18.86,63.74,63.74,0,0,0,14.37,18.74A75.18,75.18,0,0,0,66.18,287a68.64,68.64,0,0,0,9.87,4.9c-.48-4.56-.23-8.88,1.3-12.09Z"/><path class="cls-1" d="M40.49,270.53c3.2,15,9.82,35.83,22.41,41.17a6.7,6.7,0,0,0,7.75-1.31c2.55-2.37,4.67-6.51,6.45-11.57l.16.06L77,297.82a72,72,0,0,1-13.53-6.35A79.87,79.87,0,0,1,50.72,282a74.85,74.85,0,0,1-10.23-11.44Z"/><path class="cls-1" d="M5.7,36.19a7,7,0,0,1,1.73-.79c3.51-1.06,5.31,1.61,7.7,5.18,2.18,3.24,5.12,7.62,10.35,8.82a16.39,16.39,0,0,1,2.63-5.71,16.51,16.51,0,0,1-3.51-1.45,19.63,19.63,0,0,1-6.77-6.33c-2.35-3.55-4.49-5.31-6.29-5.77a3.18,3.18,0,0,0-2.33.28A6.13,6.13,0,0,0,7,32.79a12.47,12.47,0,0,0-1.31,3.4Z"/><path class="cls-1" d="M120.66,49.4c5.23-1.2,8.17-5.58,10.35-8.82,2.39-3.57,4.18-6.24,7.69-5.18a7.1,7.1,0,0,1,1.74.79,13.16,13.16,0,0,0-1.31-3.4,6.13,6.13,0,0,0-2.2-2.37,3.18,3.18,0,0,0-2.33-.28c-1.81.46-3.94,2.22-6.3,5.77a19.58,19.58,0,0,1-6.87,6.39,16.4,16.4,0,0,1-3.4,1.39,16.39,16.39,0,0,1,2.63,5.71Z"/></g><g id="Schattierung-2" data-name="Schattierung"><path class="cls-2" d="M194.36,213.59a2.68,2.68,0,0,1,1-.59,4.9,4.9,0,0,0,3.1-1.94,2.6,2.6,0,0,0,.06-2.1,9.46,9.46,0,0,0-2.6-3.65c-4.24-4-12.63-7.83-25.09-9.14-3.51-.37-7-.58-10.51-.79-16.45-1-31.32-1.88-41-18.63-10.12-17.53-8.75-39.45-7.33-62.31.5-8,1-16.19,1-24.38a2.64,2.64,0,0,1,2.53-2.63,2.87,2.87,0,0,0,1-.3,4.14,4.14,0,0,0,1.83-2.31,13.36,13.36,0,0,0,.6-5.73c-.32-4.16-1.89-9.52-5.21-16a2.62,2.62,0,0,1,0-2.33h0a16.87,16.87,0,0,0,2-8.86c-7.87,0-33,22.87-34,28.79s1.83,30.7,1.83,30.7,19.23-14.61,20.28,17.23,6.38,44.21,11.58,55-1.45,22.5-.66,30.92,7.63,21.57,26.44,23.28,32.5-5.39,37.5-11.84,4.86-15.65,6.84-16.84,7-1.46,8.74,4.41Z"/><path class="cls-2" d="M114.34,59.59A15.62,15.62,0,0,0,115.78,52c-.3-2.77-1.72-5.55-4.83-8.3a2.61,2.61,0,0,1-.64-3.06,14.67,14.67,0,0,0,.39-11.31,14.91,14.91,0,0,0-7.23-7.65c6.62,7.66,3,16.8-3.07,19.83S86.32,38.3,86.32,38.3A18.48,18.48,0,0,1,77.77,45c-5.65,2.11-12.36-4.21-12.36-4.21a21.07,21.07,0,0,1-16.84,2.89c-10-2.36-12.17-15.18-8.34-20.53a14.06,14.06,0,0,0-4.79,6.12,14.67,14.67,0,0,0,.39,11.31,2.61,2.61,0,0,1-.76,3.16c-3,2.72-4.42,5.46-4.71,8.2a12.11,12.11,0,0,0,.23,3.87C37.68,52.09,40.8,60,40.8,60s7.5,11.31,10.79,10.52,47.66-4.78,53.8-9.33c3.93-2.91,7.14-2.37,9-1.61Z"/><path class="cls-2" d="M81.67,297.63a89.3,89.3,0,0,0,5.6,14c3.5,6.79,8,12.41,13.54,14.78,6,2.52,10.39-3.07,13.64-11.37a104.14,104.14,0,0,0,4.9-18.16c0,.14-8,22.48-18.88,21.7s-18.75-20.85-18.8-21Zm90.9-18.88c-2.15,7.25-9.19,11-15.7,13.37a74,74,0,0,0,4.45,11,49.48,49.48,0,0,0,8.07,11.62,19.67,19.67,0,0,0,6.59,4.92,8.14,8.14,0,0,0,4.61.58,8.48,8.48,0,0,0,4.18-2.29,22.14,22.14,0,0,0,4.92-7.78c5.78-14.12,8-37.63,9-48.82.19-2,.34-3.64.43-4.45a2.63,2.63,0,0,1,2.9-2.32,2.44,2.44,0,0,1,.47.09,5,5,0,0,0,3.37.11,3.91,3.91,0,0,0,1.93-2.83,19,19,0,0,0,.07-7.24c-1.08-7.25-4.91-16.44-11-24.19h0s7.44,12.5,7.48,20.72-5.79,4.73-8.82,7.63-8.29,60.12-16.71,56-6.31-26.16-6.31-26.16Z"/><path class="cls-2" d="M31,204c0,.07-7.12,25.25-4.76,35.78,1.1,4.9,4.63-.8,4.64-.82a2.63,2.63,0,0,1,4.85,1.57,37.16,37.16,0,0,0,4.12,18.86,63.74,63.74,0,0,0,14.37,18.74A75.18,75.18,0,0,0,66.18,287a68.64,68.64,0,0,0,9.87,4.9,26.52,26.52,0,0,1,.62-10.34h0s-13.41-.61-26.31-14.69-11-34.2-11.31-37.62-5.79.13-8.68-1.45S31,204,31,204Z"/><path class="cls-2" d="M212.07,255.54a8,8,0,0,1-4.1,4.07,8.13,8.13,0,0,1-2.49.62c1.35,1.49,2.53,2,3.5,2a2.77,2.77,0,0,0,1.32-.49,5.13,5.13,0,0,0,1.3-1.36c.91-1.35,1.34-2.9.88-3.6h0a2.58,2.58,0,0,1-.42-1.2Z"/><path class="cls-2" d="M206.09,224.81a57.12,57.12,0,0,1,7,19.14,24,24,0,0,1-.2,9.32l0,.16a2.62,2.62,0,0,1,2.9-.52,5.8,5.8,0,0,0,.91.29,13.74,13.74,0,0,0,4.9.39,3.7,3.7,0,0,0,3-1.67l.06-.14a3.42,3.42,0,0,0,.2-.55c1.16-4.51-6.1-11.57-7.13-12.55a2.63,2.63,0,0,1,1.67-4.66s5.14,0,4.11-4.76c0-.14-.06-.26-.09-.37-.7-2.23-3.38-3.53-6.65-4.14a31,31,0,0,0-10.62.06Z"/><path class="cls-2" d="M40.49,270.53c.63,2.94,1.39,6.1,2.3,9.33,6.78,6.22,15.48,14.43,15.79,19.47.2,3.07-1.71,4.77-4,5.82a22.47,22.47,0,0,0,8.34,6.55,6.7,6.7,0,0,0,7.75-1.31c2.55-2.37,4.67-6.51,6.45-11.57l.16.06L77,297.82a72,72,0,0,1-13.53-6.35A79.87,79.87,0,0,1,50.72,282a74.85,74.85,0,0,1-10.23-11.44Z"/><path class="cls-2" d="M128,297.92a30.56,30.56,0,0,0,3.5,3.83,21.64,21.64,0,0,0,6.9,4.33,7.4,7.4,0,0,0,8-1.4c2.35-2,4.31-5.39,6-9.42l-.51-1.54a122.56,122.56,0,0,1-23.84,4.2Z"/><path class="cls-2" d="M25.11,54.69c-7.7-1.31-11.53-7-14.34-11.2-1.15-1.71-1.66-3.11-1.84-3.05-2.55.77-2.22,5.89-2.08,7.3a17.15,17.15,0,0,0,6,7.06,17.42,17.42,0,0,0,12.69,2.51,19.57,19.57,0,0,1-.42-2.62Z"/><path class="cls-2" d="M139.29,47.74c.14-1.41.46-6.53-2.09-7.3-.18-.06-.68,1.34-1.83,3.05-2.82,4.2-6.64,9.89-14.35,11.2a18.09,18.09,0,0,1-.42,2.62,17.44,17.44,0,0,0,12.68-2.49,17.25,17.25,0,0,0,6-7.08Z"/></g></g><g id="Füße"><path class="cls-3" d="M112.45,328.58c-3.65,3.67-8.14,5-13.67,2.68a23.23,23.23,0,0,1-2.24-1.1c.95,4.36,1.62,9.6.54,13.32a18.18,18.18,0,0,1-4.1,7c-1.17,1.39-2,2.44-1.14,4a2,2,0,0,0,.41.48c1.06.88,3.08,1.1,5.41.84a21.62,21.62,0,0,0,8-2.61,12.8,12.8,0,0,0,3.6-2.86,7.69,7.69,0,0,0,.85-2.24,26.37,26.37,0,0,0,.79-4.61c.35-4.87,1-10.19,1.58-15Z"/><path class="cls-3" d="M74.52,314l-.3.28c-3.67,3.42-8.06,4.55-13.36,2.3a21,21,0,0,1-2.23-1.11c.95,4.36,1.61,9.61.54,13.33a18.1,18.1,0,0,1-4.1,7c-1.17,1.39-2,2.44-1.15,4a1.94,1.94,0,0,0,.41.49h0c1,.88,3.08,1.1,5.41.84a21.68,21.68,0,0,0,8-2.61,13.26,13.26,0,0,0,3.6-2.85,7.68,7.68,0,0,0,.84-2.25,26.3,26.3,0,0,0,.8-4.61c.34-4.83,1-10.12,1.56-14.87Z"/><path class="cls-3" d="M172.46,323.8c.88,3.8,1.42,8.17.42,11.34a16.32,16.32,0,0,1-4.12,6.48l-.14.14c-1,1.06-1.66,1.88-1,3a2,2,0,0,0,.23.27c1.09,1,3.5,1.2,6.23.85a22.79,22.79,0,0,0,8.88-3.11,10.85,10.85,0,0,0,2.18-1.76,6.43,6.43,0,0,0,.76-1.89,21.24,21.24,0,0,0,.74-4.06c.3-4.25.87-8.87,1.41-13a13.46,13.46,0,0,1-6.54,3.37,13.15,13.15,0,0,1-7.57-.88c-.51-.21-1-.45-1.53-.71Z"/><path class="cls-3" d="M134.33,310c.94,3.91,1.57,8.52.53,11.84a16.19,16.19,0,0,1-4.11,6.47l-.15.15c-1,1-1.65,1.88-.94,3a1.18,1.18,0,0,0,.23.27c1.09,1,3.49,1.19,6.23.84a22.69,22.69,0,0,0,8.88-3.11,10.44,10.44,0,0,0,2.17-1.76,6.07,6.07,0,0,0,.76-1.88,20.75,20.75,0,0,0,.74-4.06c.32-4.37.9-9.12,1.46-13.38l-.28.25A12.32,12.32,0,0,1,136.57,311c-.76-.29-1.51-.61-2.24-1Z"/></g><path id="Kontur" class="cls-3" d="M139.29,47.74c.14-1.41.46-6.53-2.09-7.3-.18-.06-.68,1.34-1.83,3.05-2.82,4.2-6.64,9.89-14.35,11.2a18.09,18.09,0,0,1-.42,2.62,17.44,17.44,0,0,0,12.68-2.49,17.25,17.25,0,0,0,6-7.08ZM120.66,49.4c5.23-1.2,8.17-5.58,10.35-8.82,2.39-3.57,4.18-6.24,7.69-5.18a7.1,7.1,0,0,1,1.74.79,13.16,13.16,0,0,0-1.31-3.4,6.13,6.13,0,0,0-2.2-2.37,3.18,3.18,0,0,0-2.33-.28c-1.81.46-3.94,2.22-6.3,5.77a19.58,19.58,0,0,1-6.87,6.39,16.4,16.4,0,0,1-3.4,1.39,16.39,16.39,0,0,1,2.63,5.71ZM44.72,56.13c-4,11.62-14.17,50.62,29.56,50.62,44.13,0,33.37-39.72,29.45-50.94C99.67,58,94,57.7,89.12,52.48a17.42,17.42,0,0,1-8.27,5.66,18.68,18.68,0,0,1-6,.92A16.2,16.2,0,0,1,69,57.9a13,13,0,0,1-5.3-3.9,13.68,13.68,0,0,1-5.16,3.54,14.91,14.91,0,0,1-5.89,1,16.27,16.27,0,0,1-6-1.32,13.19,13.19,0,0,1-2-1.08ZM77.35,279.78C79,288.6,82,301.4,87.27,311.65c3.5,6.79,8,12.41,13.54,14.78,6,2.52,10.39-3.07,13.64-11.37,3.71-9.46,5.83-22.26,7-32,1.57,2.4,2.23,5.92,2.3,9.85a120.35,120.35,0,0,0,27.31-4.48A68.34,68.34,0,0,0,172.78,278c-1.86,7.75-9.17,11.72-15.91,14.14a74,74,0,0,0,4.45,11,49.48,49.48,0,0,0,8.07,11.62,19.67,19.67,0,0,0,6.59,4.92,8.14,8.14,0,0,0,4.61.58,8.48,8.48,0,0,0,4.18-2.29,22.14,22.14,0,0,0,4.92-7.78c5.78-14.12,8-37.63,9-48.82.19-2,.34-3.64.43-4.45a2.63,2.63,0,0,1,2.9-2.32,2.44,2.44,0,0,1,.47.09,5,5,0,0,0,3.37.11,3.91,3.91,0,0,0,1.93-2.83,19,19,0,0,0,.07-7.24c-1.23-8.29-6.06-19.1-13.69-27.41a2.63,2.63,0,0,1,.16-3.71,2.68,2.68,0,0,1,1-.59,4.9,4.9,0,0,0,3.1-1.94,2.6,2.6,0,0,0,.06-2.1,9.46,9.46,0,0,0-2.6-3.65c-4.24-4-12.63-7.83-25.09-9.14-3.51-.37-7-.58-10.51-.79-16.45-1-31.32-1.88-41-18.63-10.12-17.53-8.75-39.45-7.33-62.31.5-8,1-16.19,1-24.38a2.64,2.64,0,0,1,2.53-2.63,2.87,2.87,0,0,0,1-.3,4.14,4.14,0,0,0,1.83-2.31,13.36,13.36,0,0,0,.6-5.73c-.32-4.16-1.89-9.52-5.21-16a2.62,2.62,0,0,1,0-2.33h0a16.87,16.87,0,0,0,2-8.86c-.3-2.77-1.72-5.55-4.83-8.3a2.61,2.61,0,0,1-.64-3.06,14.67,14.67,0,0,0,.39-11.31c-1.22-3.11-3.77-6-8.16-8.12a2.63,2.63,0,0,1-1.25-3.5v0c.6-1.54,0-3.51-1.34-5.21a10.16,10.16,0,0,0-2.89-2.51,8.1,8.1,0,0,0-3.53-1.1c-2.29-.12-4.8,1-7,4a2.61,2.61,0,0,1-3.65.62,2.57,2.57,0,0,1-1-1.56,8.45,8.45,0,0,0-3.05-4.72,9.55,9.55,0,0,0-11.51,0,8.37,8.37,0,0,0-3,4.76,2.62,2.62,0,0,1-4.69.9c-2.18-3.06-4.68-4.14-7-4a8.06,8.06,0,0,0-3.53,1.1,10,10,0,0,0-2.89,2.51c-1.34,1.74-2,3.77-1.3,5.33a2.61,2.61,0,0,1-1.29,3.4h0c-4.4,2.08-6.94,5-8.16,8.12a14.67,14.67,0,0,0,.39,11.31,2.61,2.61,0,0,1-.76,3.16c-3,2.72-4.42,5.46-4.71,8.2a16.68,16.68,0,0,0,2,8.86,2.65,2.65,0,0,1-.12,2.48C29,69.65,27.41,75,27.1,79.09a13.38,13.38,0,0,0,.59,5.73,4.15,4.15,0,0,0,1.84,2.31,2.74,2.74,0,0,0,1.12.31,2.63,2.63,0,0,1,2.43,2.62V99c0,38.67.05,59.45-7.43,87.36L25,188.74c-1.44,5.3-2.56,9.42-2.06,10.74,1.26,3.34,4.27,1.5,4.28,1.5a2.61,2.61,0,0,1,3.57,1,2.55,2.55,0,0,1,.25,2h0c0,.07-7.12,25.25-4.76,35.78,1.1,4.9,4.63-.8,4.64-.82a2.63,2.63,0,0,1,4.85,1.57,37.16,37.16,0,0,0,4.12,18.86,63.74,63.74,0,0,0,14.37,18.74A75.18,75.18,0,0,0,66.18,287a68.64,68.64,0,0,0,9.87,4.9c-.48-4.56-.23-8.88,1.3-12.09Zm39.08-241.1a11.74,11.74,0,0,0,2.51-1,14.23,14.23,0,0,0,5-4.67c3.16-4.76,6.4-7.2,9.4-8a8.17,8.17,0,0,1,6.15.79,11.19,11.19,0,0,1,4.2,4.34,22.09,22.09,0,0,1,1.92,15.2c-.07.33-.16.68-.25,1a22.2,22.2,0,0,1-26,16c3.09,6.38,4.6,11.86,4.93,16.26a18.53,18.53,0,0,1-.94,8A9.31,9.31,0,0,1,119,91.8a6.29,6.29,0,0,1-.7.32c-.08,7.5-.55,15.12-1,22.63-1.37,22.07-2.69,43.24,6.64,59.39,8.24,14.28,21.78,15.1,36.75,16,3.49.21,7.06.42,10.73.81,13.74,1.45,23.23,5.87,28.18,10.55a14.71,14.71,0,0,1,4,5.81,7.67,7.67,0,0,1-.44,6.28,8.2,8.2,0,0,1-2.7,2.88c.94,1.16,1.84,2.37,2.69,3.59l.72-.16a36.94,36.94,0,0,1,13.86-.31c5,.95,9.3,3.31,10.69,7.74.09.28.16.55.22.82,1.29,5.95-1.44,8.72-4.25,10,3,3.59,6.82,9.37,5.54,14.37a9.61,9.61,0,0,1-.47,1.38,2,2,0,0,1-.13.25c-1.44,3-4.17,4.26-7,4.64a17.36,17.36,0,0,1-4.51-.06,11.22,11.22,0,0,1-1.77,4.56,10.1,10.1,0,0,1-2.7,2.75,7.87,7.87,0,0,1-3.93,1.4,8.52,8.52,0,0,1-5.74-1.87c-1.19,12.28-3.54,32.92-8.94,46.3-.16,1.89-.53,4.65-1,7.82-.63,4.73-1.39,10.42-1.77,15.74a27.17,27.17,0,0,1-.94,5.15,10.38,10.38,0,0,1-1.92,4,16,16,0,0,1-3.24,2.67,28.21,28.21,0,0,1-11,3.87c-4.15.53-8.1-.05-10.42-2.16a6.92,6.92,0,0,1-1.14-1.34c-2.84-4.49-1-6.62,1.54-9.37l.13-.15a12,12,0,0,0,3-4.48C169.3,329,166,320,165.22,318a55,55,0,0,1-8.59-12.46c-.22-.44-.44-.88-.65-1.32l-.3,2.22c-.63,4.73-1.38,10.42-1.76,15.74a28.06,28.06,0,0,1-.95,5.15,10.53,10.53,0,0,1-1.91,4,16,16,0,0,1-3.25,2.66,28,28,0,0,1-11,3.87c-4.16.54-8.11,0-10.43-2.16a6.28,6.28,0,0,1-1.13-1.34c-2.85-4.48-1-6.62,1.53-9.36l.13-.15a12,12,0,0,0,3-4.48c1.36-4.35-1.55-12.71-2.51-15.28a35.84,35.84,0,0,1-4-4.62,74.64,74.64,0,0,1-4,16.57c-.1.27-.21.54-.32.81-.18,2.05-.57,5.13-1,8.66-.66,5.24-1.46,11.54-1.88,17.48a32.64,32.64,0,0,1-1,5.6,12,12,0,0,1-1.87,4.24,18.15,18.15,0,0,1-5.06,4.06,26.91,26.91,0,0,1-10,3.27c-3.66.41-7.1-.15-9.34-2a7,7,0,0,1-1.63-1.94c-2.7-4.77-.81-7,1.7-10A13.83,13.83,0,0,0,92.05,342c1.5-5.19-1.77-15.35-2.55-17.67a48.84,48.84,0,0,1-6.89-10.3,50.06,50.06,0,0,1-2.19-5l-.33,2.62c-.67,5.24-1.47,11.54-1.89,17.48a32.39,32.39,0,0,1-1,5.6A11.87,11.87,0,0,1,75.37,339a18.51,18.51,0,0,1-5.06,4.07,27.06,27.06,0,0,1-10,3.26c-3.66.41-7.09-.15-9.33-2h0a6.87,6.87,0,0,1-1.63-1.93c-2.7-4.77-.81-7,1.7-10a14,14,0,0,0,3.07-5.12c1.53-5.29-1.89-15.75-2.59-17.79-14-15.94-18.26-48.84-18.82-53.74a43.5,43.5,0,0,1-2-8.63c-3.25,2.64-7.38,3.44-9.55-6.26-2-8.87,1.71-25.94,3.69-34-2.43,0-5.17-1.18-6.83-5.58-1.11-2.93.21-7.75,1.9-14l.65-2.41c7.32-27.32,7.3-47.86,7.27-86.13,0-7.61,0,.83,0-6.7-.24-.1-.47-.2-.7-.32a9.33,9.33,0,0,1-4.32-5.11,18.52,18.52,0,0,1-.95-8c.34-4.4,1.84-9.88,4.94-16.26a22.19,22.19,0,0,1-26-16.06c-.1-.34-.18-.67-.25-1a22.15,22.15,0,0,1,1.92-15.2,11.33,11.33,0,0,1,4.2-4.34,8.18,8.18,0,0,1,6.15-.79c3,.76,6.25,3.2,9.4,8a14.3,14.3,0,0,0,4.92,4.63,11.83,11.83,0,0,0,2.57,1,19.66,19.66,0,0,1,.84-11.31,19.89,19.89,0,0,1,8.89-9.95A11.48,11.48,0,0,1,42,9.22a15.28,15.28,0,0,1,4.43-3.87,13.33,13.33,0,0,1,5.85-1.78,12,12,0,0,1,8.58,3A13.44,13.44,0,0,1,64.13,3,15.08,15.08,0,0,1,73,0h.07A15,15,0,0,1,82,3a13.58,13.58,0,0,1,3.23,3.55,12,12,0,0,1,8.59-3,13.33,13.33,0,0,1,5.85,1.78,15.41,15.41,0,0,1,4.43,3.87,11.53,11.53,0,0,1,2.6,8.2,19.86,19.86,0,0,1,8.88,10,19.58,19.58,0,0,1,.84,11.31ZM107.91,52C111.07,60.14,129,112,74.28,112,19.2,112,37.75,59.38,40.71,51.8a7.21,7.21,0,0,1-.4-6.45c1.34,3.42,5.75,5.85,8.49,7a11.11,11.11,0,0,0,4,.91,9.71,9.71,0,0,0,3.83-.64,8.75,8.75,0,0,0,4.86-4.8A2.62,2.62,0,0,1,65,46.47a2.65,2.65,0,0,1,1.49,1.69A7.83,7.83,0,0,0,71,53.05a10.5,10.5,0,0,0,3.93.76,13.18,13.18,0,0,0,4.27-.67,11.36,11.36,0,0,0,7.16-6.26,2.62,2.62,0,0,1,3.42-1.43,2.58,2.58,0,0,1,1.22,1s9.5,11.14,17.56-2.45a8.35,8.35,0,0,1-.67,7.93ZM5.7,36.19a7,7,0,0,1,1.73-.79c3.51-1.06,5.31,1.61,7.7,5.18,2.18,3.24,5.12,7.62,10.35,8.82a16.39,16.39,0,0,1,2.63-5.71,16.51,16.51,0,0,1-3.51-1.45,19.63,19.63,0,0,1-6.77-6.33c-2.35-3.55-4.49-5.31-6.29-5.77a3.18,3.18,0,0,0-2.33.28A6.13,6.13,0,0,0,7,32.79a12.47,12.47,0,0,0-1.31,3.4Zm19.41,18.5c-7.7-1.31-11.53-7-14.34-11.2-1.15-1.71-1.66-3.11-1.84-3.05-2.55.77-2.22,5.89-2.08,7.3a17.15,17.15,0,0,0,6,7.06,17.42,17.42,0,0,0,12.69,2.51,19.57,19.57,0,0,1-.42-2.62ZM134.33,310c.94,3.91,1.57,8.52.53,11.84a16.19,16.19,0,0,1-4.11,6.47l-.15.15c-1,1-1.65,1.88-.94,3a1.18,1.18,0,0,0,.23.27c1.09,1,3.49,1.19,6.23.84a22.69,22.69,0,0,0,8.88-3.11,10.44,10.44,0,0,0,2.17-1.76,6.07,6.07,0,0,0,.76-1.88,20.75,20.75,0,0,0,.74-4.06c.32-4.37.9-9.12,1.46-13.38l-.28.25A12.32,12.32,0,0,1,136.57,311c-.76-.29-1.51-.61-2.24-1ZM128,297.92a30.56,30.56,0,0,0,3.5,3.83,21.64,21.64,0,0,0,6.9,4.33,7.4,7.4,0,0,0,8-1.4c2.35-2,4.31-5.39,6-9.42l-.51-1.54a122.56,122.56,0,0,1-23.84,4.2Zm44.44,25.88c.88,3.8,1.42,8.17.42,11.34a16.32,16.32,0,0,1-4.12,6.48l-.14.14c-1,1.06-1.66,1.88-1,3a2,2,0,0,0,.23.27c1.09,1,3.5,1.2,6.23.85a22.79,22.79,0,0,0,8.88-3.11,10.85,10.85,0,0,0,2.18-1.76,6.43,6.43,0,0,0,.76-1.89,21.24,21.24,0,0,0,.74-4.06c.3-4.25.87-8.87,1.41-13a13.46,13.46,0,0,1-6.54,3.37,13.15,13.15,0,0,1-7.57-.88c-.51-.21-1-.45-1.53-.71Zm-132-53.27c3.2,15,9.82,35.83,22.41,41.17a6.7,6.7,0,0,0,7.75-1.31c2.55-2.37,4.67-6.51,6.45-11.57l.16.06L77,297.82a72,72,0,0,1-13.53-6.35A79.87,79.87,0,0,1,50.72,282a74.85,74.85,0,0,1-10.23-11.44Zm165.6-45.72a57.12,57.12,0,0,1,7,19.14,24,24,0,0,1-.2,9.32l0,.16a2.62,2.62,0,0,1,2.9-.52,5.8,5.8,0,0,0,.91.29,13.74,13.74,0,0,0,4.9.39,3.7,3.7,0,0,0,3-1.67l.06-.14a3.42,3.42,0,0,0,.2-.55c1.16-4.51-6.1-11.57-7.13-12.55a2.63,2.63,0,0,1,1.67-4.66s5.14,0,4.11-4.76c0-.14-.06-.26-.09-.37-.7-2.23-3.38-3.53-6.65-4.14a31,31,0,0,0-10.62.06Zm6,30.73a8,8,0,0,1-4.1,4.07,8.13,8.13,0,0,1-2.49.62c1.35,1.49,2.53,2,3.5,2a2.77,2.77,0,0,0,1.32-.49,5.13,5.13,0,0,0,1.3-1.36c.91-1.35,1.34-2.9.88-3.6h0a2.58,2.58,0,0,1-.42-1.2ZM74.52,314l-.3.28c-3.67,3.42-8.06,4.55-13.36,2.3a21,21,0,0,1-2.23-1.11c.95,4.36,1.61,9.61.54,13.33a18.1,18.1,0,0,1-4.1,7c-1.17,1.39-2,2.44-1.15,4a1.94,1.94,0,0,0,.41.49h0c1,.88,3.08,1.1,5.41.84a21.68,21.68,0,0,0,8-2.61,13.26,13.26,0,0,0,3.6-2.85,7.68,7.68,0,0,0,.84-2.25,26.3,26.3,0,0,0,.8-4.61c.34-4.83,1-10.12,1.56-14.87Zm37.93,14.63c-3.65,3.67-8.14,5-13.67,2.68a23.23,23.23,0,0,1-2.24-1.1c.95,4.36,1.62,9.6.54,13.32a18.18,18.18,0,0,1-4.1,7c-1.17,1.39-2,2.44-1.14,4a2,2,0,0,0,.41.48c1.06.88,3.08,1.1,5.41.84a21.62,21.62,0,0,0,8-2.61,12.8,12.8,0,0,0,3.6-2.86,7.69,7.69,0,0,0,.85-2.24,26.37,26.37,0,0,0,.79-4.61c.35-4.87,1-10.19,1.58-15Z"/><g id="Gesicht"><path class="cls-4" d="M44.72,56.13c-4,11.62-14.17,50.62,29.56,50.62,44.13,0,33.37-39.72,29.45-50.94C99.67,58,94,57.7,89.12,52.48a17.42,17.42,0,0,1-8.27,5.66,18.68,18.68,0,0,1-6,.92A16.2,16.2,0,0,1,69,57.9a13,13,0,0,1-5.3-3.9,13.68,13.68,0,0,1-5.16,3.54,14.91,14.91,0,0,1-5.89,1,16.27,16.27,0,0,1-6-1.32,13.19,13.19,0,0,1-2-1.08Z"/><path class="cls-3" d="M69.07,97.75a9.47,9.47,0,0,0,10.43,0,8.78,8.78,0,0,0-1.57-.85,9.69,9.69,0,0,0-7.28,0,9.61,9.61,0,0,0-1.58.86ZM61.7,92.51c-1.35-1.94-1.14-4.14.89-5.45a7.68,7.68,0,0,0,3.23,4.57,6,6,0,0,0,2.17.82,4.75,4.75,0,0,0,2-.1,3.54,3.54,0,0,0,2.07-1.53,2.82,2.82,0,0,0,.35-1.13,3.74,3.74,0,0,0,0-1,21,21,0,0,0-2.21-.79c-.94-.41-1.87-.82-2.52-1.19a5.15,5.15,0,0,1-1.4-1.17,3.81,3.81,0,0,1-.8-1.78,3.13,3.13,0,0,1,.39-2,3.25,3.25,0,0,1,.83-1c.5-.41,4.17-.62,7.64-.62a54.75,54.75,0,0,1,6,.27,1.69,1.69,0,0,1,1.38.31l.06,0a3.43,3.43,0,0,1,.82.94h0a3.13,3.13,0,0,1,.39,2,3.71,3.71,0,0,1-.8,1.78,5.15,5.15,0,0,1-1.4,1.17c-.65.37-1.58.78-2.52,1.19a21,21,0,0,0-2.21.79,3.74,3.74,0,0,0,0,1,3,3,0,0,0,.35,1.13,3.54,3.54,0,0,0,2.07,1.53,4.75,4.75,0,0,0,2,.1,6,6,0,0,0,2.17-.82A7.64,7.64,0,0,0,86,87.06c2.17,1.76,2.3,3.8.86,5.62a13.46,13.46,0,0,1-4.37,7.21,12.86,12.86,0,0,1-16.33,0,13.37,13.37,0,0,1-4.43-7.41Z"/><path class="cls-3" d="M50.12,72.28a1.76,1.76,0,0,1-3.42-.81s1.88-8.57,8.14-9.11c6.69-.58,7.8,10.15,7.8,10.18a1.75,1.75,0,1,1-3.48.4s-.79-7.37-4-7.09c-3.66.32-5,6.41-5,6.43Z"/><path class="cls-3" d="M98.44,72.28a1.76,1.76,0,0,0,3.42-.81S100,62.9,93.72,62.36c-6.69-.58-7.8,10.15-7.8,10.18a1.75,1.75,0,1,0,3.48.4s.79-7.37,4-7.09c3.66.32,5,6.41,5,6.43Z"/><path class="cls-5" d="M69.07,97.75a9.47,9.47,0,0,0,10.43,0,8.78,8.78,0,0,0-1.57-.85,9.69,9.69,0,0,0-7.28,0,9.61,9.61,0,0,0-1.58.86Z"/></g><g id="Sattel"><path class="cls-3" d="M128.91,183c-.42,7.48-2.64,13.45-4.61,18.75-3.26,8.75-5.77,15.51,3.3,24.28,4.09,4,11.12,6.29,18.7,6.67,7.41.38,15.28-1.11,21.42-4.75a21.74,21.74,0,0,0,2.89-2.07A26.34,26.34,0,0,0,179,211.38a22.4,22.4,0,0,0-2.22-16.12,19.51,19.51,0,0,0-1.45-2.09,36,36,0,0,0-5-.92l.17.28a28.2,28.2,0,0,1,3.87,16,20.53,20.53,0,0,1-7,14.59,18.72,18.72,0,0,1-2.62,1.87A31.88,31.88,0,0,1,147.21,229c-6.31-.32-12.25-2.34-15.81-5.79-8.19-7.92-5.88-14.41-3-22.49,1.59-4.46,3.38-9.46,3.34-15.45a31.89,31.89,0,0,1-2.83-2.24Zm15.11,7.5c.49,4.16-.45,8.06-1.31,11.59-1,4.17-1.88,7.76.42,10a9.18,9.18,0,0,0,5.76,2,12.35,12.35,0,0,0,6.8-1.49l.1-.06c2-1.29,2.92-4.73,2.89-8.69a25.9,25.9,0,0,0-3.06-12.14,63.85,63.85,0,0,1-11.6-1.19Zm15.56,1.26a30.51,30.51,0,0,1,2.6,12.06c0,5.08-1.39,9.63-4.48,11.63l-.23.14a15.93,15.93,0,0,1-8.76,2,12.66,12.66,0,0,1-8-3c-3.74-3.63-2.65-8.12-1.39-13.33.88-3.64,1.87-7.69,1-11.76a32.66,32.66,0,0,1-5.12-2.16c-.31,5.63-2,10.29-3.47,14.5-2.47,6.91-4.45,12.47,2.11,18.81,3,2.85,8.06,4.54,13.57,4.82A28.5,28.5,0,0,0,163,222a16.42,16.42,0,0,0,2.14-1.53,17.12,17.12,0,0,0,5.74-12.15,24.75,24.75,0,0,0-3.39-14,22.37,22.37,0,0,0-1.66-2.41c-2-.1-4-.12-6-.15ZM121,200.51c2.21-5.93,4.74-12.75,4.43-21.53a1.76,1.76,0,0,1,.58-1.46,1.74,1.74,0,0,1,2.47.13c9.27,10.29,20.54,10.45,31.41,10.6,5.81.08,11.53.17,16.93,1.69a1.82,1.82,0,0,1,.86.55,22.63,22.63,0,0,1,2.13,3,25.85,25.85,0,0,1,2.64,18.63,29.91,29.91,0,0,1-9.6,16.42,24.05,24.05,0,0,1-3.37,2.41c-6.74,4-15.33,5.65-23.38,5.24-8.37-.43-16.24-3.1-21-7.65-10.72-10.36-7.85-18.06-4.15-28Z"/><path class="cls-6" d="M159.58,191.74a30.51,30.51,0,0,1,2.6,12.06c0,5.08-1.39,9.63-4.48,11.63l-.23.14a15.93,15.93,0,0,1-8.76,2,12.66,12.66,0,0,1-8-3c-3.74-3.63-2.65-8.12-1.39-13.33.88-3.64,1.87-7.69,1-11.76a32.66,32.66,0,0,1-5.12-2.16c-.31,5.63-2,10.29-3.47,14.5-2.47,6.91-4.45,12.47,2.11,18.81,3,2.85,8.06,4.54,13.57,4.82A28.5,28.5,0,0,0,163,222a16.42,16.42,0,0,0,2.14-1.53,17.12,17.12,0,0,0,5.74-12.15,24.75,24.75,0,0,0-3.39-14,22.37,22.37,0,0,0-1.66-2.41c-2-.1-4-.12-6-.15Z"/><path class="cls-7" d="M159.58,191.74a30.51,30.51,0,0,1,2.6,12.06c0,5.08-1.39,9.63-4.48,11.63l-.23.14a15.93,15.93,0,0,1-8.76,2,12.66,12.66,0,0,1-8-3c-3.74-3.63-2.65-8.12-1.39-13.33.88-3.64,1.87-7.69,1-11.76-1-.34-2.06-.73-3.08-1.18a68.8,68.8,0,0,1-3,14.14c-2.13,6-3.85,10.79,1.83,16.28,2.56,2.47,7,3.93,11.75,4.17a24.67,24.67,0,0,0,13.53-3,13.42,13.42,0,0,0,1.85-1.33,14.81,14.81,0,0,0,5-10.52c.28-4.14-1.67-10.55-3.82-14.17a20.35,20.35,0,0,0-1.44-2.09l-3-.05Z"/><path class="cls-8" d="M144,190.48c.49,4.16-.45,8.06-1.31,11.59-1,4.17-1.88,7.76.42,10a9.18,9.18,0,0,0,5.76,2,12.35,12.35,0,0,0,6.8-1.49l.1-.06c2-1.29,2.92-4.73,2.89-8.69a25.9,25.9,0,0,0-3.06-12.14,63.85,63.85,0,0,1-11.6-1.19Z"/><path class="cls-9" d="M128.91,183c-.42,7.48-2.64,13.45-4.61,18.75-3.26,8.75-5.77,15.51,3.3,24.28,4.09,4,11.12,6.29,18.7,6.67,7.41.38,15.28-1.11,21.42-4.75a21.74,21.74,0,0,0,2.89-2.07A26.34,26.34,0,0,0,179,211.38a22.4,22.4,0,0,0-2.22-16.12,19.51,19.51,0,0,0-1.45-2.09,36,36,0,0,0-5-.92l.17.28a28.2,28.2,0,0,1,3.87,16,20.53,20.53,0,0,1-7,14.59,18.72,18.72,0,0,1-2.62,1.87A31.88,31.88,0,0,1,147.21,229c-6.31-.32-12.25-2.34-15.81-5.79-8.19-7.92-5.88-14.41-3-22.49,1.59-4.46,3.38-9.46,3.34-15.45a31.89,31.89,0,0,1-2.83-2.24Z"/><path class="cls-10" d="M173.48,192.74c-1-.21-2.08-.37-3.14-.49l.17.28a28.2,28.2,0,0,1,3.87,16,20.53,20.53,0,0,1-7,14.59,18.72,18.72,0,0,1-2.62,1.87A31.88,31.88,0,0,1,147.21,229c-6.31-.32-12.25-2.34-15.81-5.79-8.19-7.92-5.88-14.41-3-22.49,1.59-4.46,3.38-9.46,3.34-15.45-.49-.35-1-.71-1.47-1.1-.51,6.78-2.71,13.13-4.5,18-3.07,8.25-5.45,14.63,3.12,22.91,3.86,3.73,10.49,5.93,17.64,6.3,7,.35,14.43-1,20.22-4.49a20,20,0,0,0,2.73-2,24.91,24.91,0,0,0,8-13.66A21.16,21.16,0,0,0,175.33,196c-.27-.46-1.15-2-1.85-3.23Z"/></g></g></g></svg>