<svg xmlns="http://www.w3.org/2000/svg" viewBox="0 0 111.28 137.84"><defs><style>.cls-1{fill:#fff;}</style></defs><g id="Ebene_2" data-name="Ebene 2"><g id="Ebene_1-2" data-name="Ebene 1"><path class="cls-1" d="M96.68,99.59l-41,22.84-41-22.84V57.37H0v46.51a7.31,7.31,0,0,0,3.75,6.38l47.9,26.66a7.34,7.34,0,0,0,3.55.92h.88a7.34,7.34,0,0,0,3.55-.92l47.9-26.66a7.31,7.31,0,0,0,3.75-6.38V57.37H96.68Z"/><path class="cls-1" d="M107.53,27.58,59.63.92A7.34,7.34,0,0,0,56.08,0H55.2a7.34,7.34,0,0,0-3.55.92L3.75,27.58A7.31,7.31,0,0,0,0,34v4.92l13.36.06L55.64,15.41,97.92,38.94l13.36-.15V34A7.31,7.31,0,0,0,107.53,27.58Z"/></g></g></svg>