<svg xmlns="http://www.w3.org/2000/svg" viewBox="0 0 120.88 138"><defs><style>.cls-1{fill:#fff;}</style></defs><title>Logo only white</title><g id="Ebene_2" data-name="Ebene 2"><g id="Logo_only_white"><path class="cls-1" d="M120.88,59.09v42.09a4.7,4.7,0,0,1-2.35,4.08L62.91,137.37a4.72,4.72,0,0,1-4.71,0L2.58,105.26a4.72,4.72,0,0,1-2.35-4.08V59.06a1.89,1.89,0,0,1,1-1.64L12.23,51a1.88,1.88,0,0,1,2.83,1.63v40a4.7,4.7,0,0,0,2.36,4.07l35.71,20.62,5.07,2.93a4.72,4.72,0,0,0,4.71,0L68,117.31,103.7,96.69a4.71,4.71,0,0,0,2.35-4.07V52.7a1.88,1.88,0,0,1,2.83-1.63l11.06,6.38A1.9,1.9,0,0,1,120.88,59.09Z"/><path class="cls-1" d="M67.84,29.34v78.49a4.71,4.71,0,0,1-2.35,4.07l-2.72,1.57a4.72,4.72,0,0,1-4.71,0l-2.71-1.57A4.69,4.69,0,0,1,53,107.83V29.34a4.7,4.7,0,0,1,2.35-4.08l2.71-1.57a4.72,4.72,0,0,1,4.71,0l2.72,1.57A4.72,4.72,0,0,1,67.84,29.34Z"/><path class="cls-1" d="M52.9,20.69l-38.07,22h0l-12,6.92A1.89,1.89,0,0,1,0,48V36.82a4.72,4.72,0,0,1,2.35-4.08L58,.63a4.72,4.72,0,0,1,4.71,0L118.3,32.74a4.7,4.7,0,0,1,2.35,4.08V48a1.88,1.88,0,0,1-2.83,1.63l-50.07-29-4.92-2.86a4.7,4.7,0,0,0-4.7,0Z"/></g></g></svg>