<svg xmlns="http://www.w3.org/2000/svg" viewBox="0 0 399.18 266.21"><defs><style>.cls-1{fill:#2d393d;}</style></defs><title>Logo UMH primary</title><g id="Ebene_2" data-name="Ebene 2"><g id="Logo_UMH_primary"><g id="Logo_UMH_primary-2" data-name="Logo UMH primary"><path class="cls-1" d="M128.25,197.2V175.05h5.08v22.11c0,3.76-2.4,5.72-5.87,5.72H116.7c-3.28,0-5.92-2-5.92-5.72V175.05h5.12V197.2c0,.72.28,1.16.88,1.16h10.56C128,198.36,128.25,197.92,128.25,197.2Z"/><path class="cls-1" d="M147.22,175.05H152l12.92,19.63V175.05h4.79v27.83h-4.79L152,183.2v19.68h-4.8Z"/><path class="cls-1" d="M185,175.05h4.8v27.83H185Z"/><path class="cls-1" d="M210.3,179.56h-7.64v-4.51h20.11v4.51H215.1v23.32h-4.8Z"/><path class="cls-1" d="M234.66,175.05h18.63v4.51H239.46v6.6h10.87v4.52H239.46v7.68h14.11v4.52H234.66Z"/><path class="cls-1" d="M287.37,180.76v16.4c0,3.76-2.44,5.72-5.92,5.72H266.22V175.05h15.23C284.93,175.05,287.37,177,287.37,180.76Zm-6,17.6c.6,0,.88-.44.88-1.16V180.68c0-.68-.28-1.12-.88-1.12H271v18.8Z"/><path class="cls-1" d="M2.61,250.34v15.54H0V245H2.7l8,16,8-16h2.7v20.88H18.69V250.34l-8.1,15.87Z"/><path class="cls-1" d="M38.49,245l9.45,20.88H45l-1.59-3.48H33.21l-1.35,3.48H29.22l8-20.88Zm-.63,5.1-3.69,9.81H42.3Z"/><path class="cls-1" d="M55.83,245h2.7l10.89,16.41V245h2.7v20.88h-2.7L58.53,249.44v16.44h-2.7Z"/><path class="cls-1" d="M96.09,262.67V245h2.76v17.22a3.49,3.49,0,0,1-3.78,3.66H86.31a3.49,3.49,0,0,1-3.78-3.66V245h2.76v17.67c0,.45.18.72.63.72h9.54C95.91,263.39,96.09,263.12,96.09,262.67Z"/><path class="cls-1" d="M109.26,245h13.11v2.49H112V254h9v2.49h-9v9.42h-2.7Z"/><path class="cls-1" d="M137,245l9.45,20.88h-2.91L142,262.4H131.76l-1.35,3.48h-2.64l8-20.88Zm-.63,5.1-3.69,9.81h8.13Z"/><path class="cls-1" d="M153.84,262.22V248.66a3.49,3.49,0,0,1,3.78-3.66h8.13a3.36,3.36,0,0,1,3.66,3.66v2.19h-2.7v-2.64c0-.45-.18-.72-.63-.72H156.6v15.9h9.48c.45,0,.63-.27.63-.72v-2.61h2.7v2.16a3.36,3.36,0,0,1-3.66,3.66h-8.13A3.49,3.49,0,0,1,153.84,262.22Z"/><path class="cls-1" d="M183.27,247.49h-6V245H192v2.49H186v18.39h-2.7Z"/><path class="cls-1" d="M213.84,262.67V245h2.76v17.22a3.49,3.49,0,0,1-3.78,3.66h-8.76a3.49,3.49,0,0,1-3.78-3.66V245H203v17.67c0,.45.18.72.63.72h9.54C213.66,263.39,213.84,263.12,213.84,262.67Z"/><path class="cls-1" d="M242.82,265.88h-3.24l-6.9-8.43h-3v8.43H227V245h10.74a3.49,3.49,0,0,1,3.78,3.66v5.13a3.49,3.49,0,0,1-3.78,3.66h-1.83Zm-13.11-10.83h9.06v-7.56h-9.06Z"/><path class="cls-1" d="M251.43,245h2.7v20.88h-2.7Z"/><path class="cls-1" d="M265.23,245h2.7l10.89,16.41V245h2.7v20.88h-2.7l-10.89-16.44v16.44h-2.7Z"/><path class="cls-1" d="M303.87,265.88h-8.16a3.49,3.49,0,0,1-3.78-3.66V248.66a3.49,3.49,0,0,1,3.78-3.66h8.13a3.36,3.36,0,0,1,3.66,3.66v2h-2.7v-2.49c0-.45-.18-.72-.63-.72h-9.48v15.9h9.45c.45,0,.63-.27.63-.72v-4.89h-4.38v-2.49h7.14v6.93A3.36,3.36,0,0,1,303.87,265.88Z"/><path class="cls-1" d="M331.74,245h2.7v9.42h10V245h2.7v20.88h-2.7v-8.94h-10v8.94h-2.7Z"/><path class="cls-1" d="M371.1,262.67V245h2.76v17.22a3.49,3.49,0,0,1-3.78,3.66h-8.76a3.49,3.49,0,0,1-3.78-3.66V245h2.76v17.67c0,.45.18.72.63.72h9.54C370.92,263.39,371.1,263.12,371.1,262.67Z"/><path class="cls-1" d="M399.12,251c0,2.31-.27,3.42-1.74,4.29,1.44.9,1.8,2.82,1.8,4.92,0,4-1.44,5.64-4.68,5.64H384.27V245h9.93C397.68,245,399.12,246.41,399.12,251ZM396.3,254v-5.76c0-.45-.21-.72-.66-.72,0,0-8.67,0-8.67,0V254Zm-.66,9.42c.45,0,.66-.27.66-.72v-6.3H387v7Z"/></g></g><g id="Logo_United_primary"><path class="cls-1" d="M260,59.09v42.09a4.72,4.72,0,0,1-2.35,4.08l-55.62,32.11a4.72,4.72,0,0,1-4.71,0l-55.62-32.11a4.7,4.7,0,0,1-2.35-4.08V59.06a1.9,1.9,0,0,1,.94-1.64L151.38,51a1.88,1.88,0,0,1,2.83,1.63v40a4.71,4.71,0,0,0,2.35,4.07l35.72,20.62,5.07,2.93a4.72,4.72,0,0,0,4.71,0l5.06-2.93,35.72-20.62a4.7,4.7,0,0,0,2.36-4.07V52.7A1.88,1.88,0,0,1,248,51.07l11.06,6.38A1.9,1.9,0,0,1,260,59.09Z"/><path class="cls-1" d="M207,29.34v78.49a4.7,4.7,0,0,1-2.36,4.07l-2.71,1.57a4.72,4.72,0,0,1-4.71,0l-2.71-1.57a4.7,4.7,0,0,1-2.36-4.07V29.34a4.71,4.71,0,0,1,2.36-4.08l2.71-1.57a4.72,4.72,0,0,1,4.71,0l2.71,1.57A4.71,4.71,0,0,1,207,29.34Z"/><path class="cls-1" d="M192.05,20.69,154,42.67h0l-12,6.92A1.89,1.89,0,0,1,139.15,48V36.82a4.7,4.7,0,0,1,2.35-4.08L197.12.63a4.7,4.7,0,0,1,4.7,0l55.63,32.11a4.72,4.72,0,0,1,2.35,4.08V48A1.89,1.89,0,0,1,257,49.62l-50.07-29L202,17.71a4.7,4.7,0,0,0-4.7,0Z"/></g></g></svg>